<?xml version="1.0" standalone="no"?>
<!DOCTYPE svg PUBLIC "-//W3C//DTD SVG 20010904//EN"
 "http://www.w3.org/TR/2001/REC-SVG-20010904/DTD/svg10.dtd">
<svg version="1.0" xmlns="http://www.w3.org/2000/svg"
 width="950.000000pt" height="950.000000pt" viewBox="0 0 950.000000 950.000000"
 preserveAspectRatio="xMidYMid meet">
<metadata>
Created by potrace 1.16, written by Peter Selinger 2001-2019
</metadata>
<g transform="translate(0.000000,950.000000) scale(0.100000,-0.100000)"
fill="#000000" stroke="none">
<path d="M0 4750 l0 -4750 4750 0 4750 0 0 4750 0 4750 -4750 0 -4750 0 0
-4750z m5150 4124 c279 -30 503 -75 790 -159 175 -52 258 -82 465 -170 78 -33
341 -168 435 -223 251 -146 640 -432 640 -469 0 -28 -277 -303 -307 -303 -6 0
-49 31 -95 68 -46 38 -123 98 -173 133 -522 374 -1139 604 -1800 671 -184 18
-584 16 -776 -4 -422 -45 -840 -164 -1224 -347 -277 -133 -431 -231 -748 -476
-47 -36 -62 -43 -77 -35 -25 14 -279 259 -291 282 -14 25 -3 37 131 146 117
94 394 281 538 362 583 327 1252 518 1902 543 145 6 449 -4 590 -19z m-3420
-1377 c172 -237 462 -530 730 -738 124 -96 360 -249 385 -249 12 0 34 14 51
31 16 17 79 73 139 123 410 346 834 537 1355 613 189 27 527 25 723 -5 412
-63 776 -208 1112 -440 92 -64 281 -221 340 -281 21 -23 48 -41 58 -41 20 0
158 86 311 195 270 191 590 506 795 783 30 39 58 72 62 72 5 0 44 -41 86 -91
416 -489 695 -994 871 -1579 74 -244 106 -398 144 -690 30 -226 32 -769 5
-985 -63 -495 -185 -914 -387 -1330 -143 -295 -308 -562 -480 -779 -110 -138
-241 -286 -255 -286 -7 0 -35 30 -62 68 -170 227 -421 478 -688 687 -153 120
-390 275 -418 275 -7 0 -33 -21 -57 -46 -25 -25 -94 -87 -155 -137 -60 -50
-112 -94 -115 -97 -9 -9 -143 -96 -224 -145 -553 -334 -1266 -441 -1927 -291
-92 21 -323 98 -424 141 -112 49 -264 131 -383 207 -101 65 -365 273 -416 327
-17 17 -35 31 -41 31 -56 0 -404 -242 -610 -425 -144 -129 -281 -271 -420
-440 -22 -26 -52 -62 -66 -79 -14 -17 -35 -46 -48 -63 -12 -18 -28 -33 -34
-33 -12 0 -100 98 -236 259 -101 122 -226 304 -346 508 -63 107 -208 387 -231
448 -7 17 -33 82 -59 145 -140 341 -244 797 -276 1213 -15 196 -7 664 15 817
72 520 185 902 392 1330 112 232 215 405 368 620 127 178 332 420 355 420 9 0
36 -29 61 -63z m691 -5765 c286 -233 708 -466 1072 -591 229 -79 451 -132 737
-178 97 -15 175 -18 505 -18 360 0 401 2 530 23 309 51 324 55 725 183 118 38
257 97 378 160 52 27 97 49 102 49 7 0 169 92 234 133 104 65 282 188 324 226
63 54 102 81 119 81 16 0 289 -245 297 -266 13 -34 3 -51 -52 -91 -31 -23 -86
-65 -122 -93 -36 -28 -87 -66 -115 -85 -27 -18 -84 -57 -125 -86 -41 -28 -88
-60 -105 -69 -201 -113 -272 -154 -284 -163 -32 -26 -449 -195 -601 -244 -399
-130 -720 -188 -1108 -202 -681 -25 -1146 52 -1777 294 -212 82 -346 146 -511
246 -275 166 -635 424 -642 460 -2 10 37 55 95 111 170 164 197 188 219 188
12 0 59 -31 105 -68z"/>
<path d="M1684 6845 c-54 -24 -204 -267 -336 -543 -216 -453 -327 -892 -358
-1417 -9 -168 -9 -229 6 -460 18 -294 97 -703 178 -914 18 -47 38 -104 45
-126 36 -113 187 -439 259 -560 56 -93 160 -257 181 -285 l19 -24 119 114
c234 227 415 372 642 515 61 39 113 75 115 81 2 6 -14 39 -37 75 -91 142 -202
381 -260 559 -68 209 -91 312 -111 485 -54 474 -8 868 150 1278 60 156 130
297 147 297 8 0 40 -23 71 -50 32 -28 85 -64 118 -81 63 -32 192 -69 240 -69
17 0 28 -5 28 -14 0 -7 -22 -59 -50 -114 -89 -179 -144 -357 -186 -607 -21
-120 -23 -437 -5 -560 40 -266 128 -547 220 -704 17 -28 31 -54 31 -56 0 -24
128 -212 232 -341 185 -230 510 -465 799 -578 139 -54 300 -102 394 -116 39
-6 99 -16 135 -22 86 -15 444 -14 545 1 377 57 709 195 998 415 43 32 76 64
74 70 -16 48 -568 194 -872 231 -168 21 -523 38 -625 30 -173 -13 -391 -36
-477 -50 -91 -16 -105 -19 -282 -60 l-105 -25 -55 31 c-110 62 -367 285 -359
311 4 14 212 86 358 124 150 38 371 81 550 106 224 30 756 33 975 5 415 -54
734 -134 1087 -273 75 -30 143 -54 150 -54 20 0 110 141 176 275 159 322 232
652 218 990 -13 329 -78 596 -211 870 -110 227 -228 397 -380 550 -346 347
-778 556 -1258 610 -225 25 -459 15 -677 -31 -135 -27 -353 -103 -486 -168
-205 -99 -460 -282 -440 -314 9 -15 309 -112 463 -151 276 -69 466 -92 825
-98 248 -4 335 -2 455 11 243 28 465 69 622 117 35 10 72 19 82 19 45 0 349
-329 336 -364 -16 -41 -527 -172 -842 -217 -137 -19 -527 -39 -670 -33 -409
16 -668 55 -1015 156 -269 77 -423 139 -695 278 -436 222 -715 421 -1030 733
-171 170 -165 166 -221 142z"/>
<path d="M7705 6759 c-165 -167 -410 -367 -647 -527 -76 -51 -138 -98 -138
-104 0 -5 22 -47 48 -92 198 -331 302 -625 358 -1011 25 -170 26 -557 1 -710
-37 -224 -85 -403 -159 -590 -37 -94 -123 -272 -164 -341 -11 -18 -34 -56 -51
-87 -18 -30 -33 -61 -33 -70 0 -8 30 -34 68 -58 97 -63 308 -214 372 -268 100
-84 304 -268 360 -325 30 -31 60 -56 67 -56 17 0 146 199 237 365 409 750 547
1581 405 2440 -40 241 -125 546 -216 770 -116 288 -372 745 -416 745 -7 0 -48
-36 -92 -81z"/>
</g>
</svg>
